<svg width="3905" height="2651" viewBox="0 0 3905 2651" fill="none" xmlns="http://www.w3.org/2000/svg">
<g filter="url(#filter0_dd_12_12)">
<path d="M712.291 2579.65V2182.48H50V1791L472.496 71.3532H1167.77V1763.95H1287.04V2182.48H1167.77V2579.65H712.291ZM448.389 1763.95H712.291V501.265L448.389 1763.95Z" fill="#A259FF"/>
<path d="M1953.13 2601C1764.51 2601 1618.61 2541.69 1515.41 2423.06C1413.07 2304.43 1361.89 2133.6 1361.89 1910.58V780.281C1361.89 544.921 1410.53 364.604 1507.8 239.332C1605.92 113.111 1754.36 50 1953.13 50C2152.75 50 2301.2 113.111 2398.47 239.332C2495.74 364.604 2544.37 544.921 2544.37 780.281V1910.58C2544.37 2133.6 2493.2 2304.43 2390.86 2423.06C2288.51 2541.69 2142.6 2601 1953.13 2601ZM1953.13 2139.77C1987.81 2139.77 2014.88 2122.21 2034.33 2087.1C2053.79 2051.98 2063.52 2012.6 2063.52 1968.94V731.88C2063.52 673.04 2057.6 621.792 2045.75 578.137C2034.76 533.532 2003.88 511.23 1953.13 511.23C1902.38 511.23 1871.09 533.532 1859.25 578.137C1848.25 621.792 1842.75 673.04 1842.75 731.88V1968.94C1842.75 2012.6 1852.48 2051.98 1871.93 2087.1C1892.23 2122.21 1919.3 2139.77 1953.13 2139.77Z" fill="#A259FF"/>
<path d="M3280.25 2579.65V2182.48H2617.96V1791L3040.46 71.3532H3735.74V1763.95H3855V2182.48H3735.74V2579.65H3280.25ZM3016.35 1763.95H3280.25V501.265L3016.35 1763.95Z" fill="#A259FF"/>
</g>
<g filter="url(#filter1_f_12_12)">
<path d="M712.291 2579.65V2182.48H50V1791L472.496 71.3532H1167.77V1763.95H1287.04V2182.48H1167.77V2579.65H712.291ZM448.39 1763.95H712.291V501.265L448.39 1763.95Z" fill="#A259FF"/>
<path d="M1953.13 2601C1764.51 2601 1618.61 2541.69 1515.41 2423.06C1413.07 2304.43 1361.89 2133.6 1361.89 1910.58V780.281C1361.89 544.921 1410.53 364.604 1507.8 239.332C1605.92 113.111 1754.36 50 1953.13 50C2152.75 50 2301.2 113.111 2398.47 239.332C2495.74 364.604 2544.38 544.921 2544.38 780.281V1910.58C2544.38 2133.6 2493.2 2304.43 2390.86 2423.06C2288.51 2541.69 2142.6 2601 1953.13 2601ZM1953.13 2139.77C1987.81 2139.77 2014.88 2122.21 2034.33 2087.1C2053.79 2051.98 2063.52 2012.6 2063.52 1968.94V731.88C2063.52 673.04 2057.6 621.792 2045.75 578.137C2034.76 533.532 2003.88 511.23 1953.13 511.23C1902.38 511.23 1871.09 533.532 1859.25 578.137C1848.25 621.792 1842.75 673.04 1842.75 731.88V1968.94C1842.75 2012.6 1852.48 2051.98 1871.93 2087.1C1892.23 2122.21 1919.3 2139.77 1953.13 2139.77Z" fill="#A259FF"/>
<path d="M3280.25 2579.65V2182.48H2617.96V1791L3040.46 71.3532H3735.74V1763.95H3855V2182.48H3735.74V2579.65H3280.25ZM3016.35 1763.95H3280.25V501.265L3016.35 1763.95Z" fill="#A259FF"/>
<path d="M710.291 2579.65V2581.65H712.291H1167.77H1169.77V2579.65V2184.48H1287.04H1289.04V2182.48V1763.95V1761.95H1287.04H1169.77V71.3532V69.3532H1167.77H472.496H470.928L470.554 70.8761L48.0578 1790.52L48 1790.76V1791V2182.48V2184.48H50H710.291V2579.65ZM1513.9 2424.36L1513.9 2424.37C1617.55 2543.52 1764.06 2603 1953.13 2603C2143.05 2603 2289.56 2543.52 2392.37 2424.36C2495.14 2305.24 2546.38 2133.88 2546.38 1910.58V780.281C2546.38 544.682 2497.7 363.862 2400.05 238.105C2302.3 111.274 2153.2 48 1953.13 48C1753.91 48 1604.81 111.278 1506.22 238.105L1506.22 238.105C1408.57 363.862 1359.89 544.682 1359.89 780.281V1910.58C1359.89 2133.88 1411.13 2305.24 1513.9 2424.36ZM2043.81 578.615L2043.82 578.638L2043.82 578.66C2055.61 622.103 2061.52 673.167 2061.52 731.88V1968.94C2061.52 2012.29 2051.86 2051.34 2032.59 2086.13C2013.42 2120.73 1986.96 2137.77 1953.13 2137.77C1920.17 2137.77 1893.7 2120.74 1873.67 2086.11C1854.4 2051.32 1844.75 2012.28 1844.75 1968.94V731.88C1844.75 673.16 1850.24 622.085 1861.18 578.631C1867.01 556.695 1877.57 540.411 1892.76 529.585C1907.98 518.742 1928.04 513.23 1953.13 513.23C1978.23 513.23 1998.18 518.743 2013.18 529.578C2028.16 540.397 2038.4 556.674 2043.81 578.615ZM3278.25 2579.65V2581.65H3280.25H3735.74H3737.74V2579.65V2184.48H3855H3857V2182.48V1763.95V1761.95H3855H3737.74V71.3532V69.3532H3735.74H3040.46H3038.89L3038.52 70.8761L2616.02 1790.52L2615.96 1790.76V1791V2182.48V2184.48H2617.96H3278.25V2579.65ZM710.291 520.611V1761.95H450.851L710.291 520.611ZM3278.25 520.61V1761.95H3018.81L3278.25 520.61Z" stroke="#A259FF" stroke-width="4"/>
</g>
<defs>
<filter id="filter0_dd_12_12" x="0" y="0" width="3905" height="2651" filterUnits="userSpaceOnUse" color-interpolation-filters="sRGB">
<feFlood flood-opacity="0" result="BackgroundImageFix"/>
<feColorMatrix in="SourceAlpha" type="matrix" values="0 0 0 0 0 0 0 0 0 0 0 0 0 0 0 0 0 0 127 0" result="hardAlpha"/>
<feOffset/>
<feGaussianBlur stdDeviation="25"/>
<feComposite in2="hardAlpha" operator="out"/>
<feColorMatrix type="matrix" values="0 0 0 0 0.32549 0 0 0 0 0.0392157 0 0 0 0 0.533333 0 0 0 1 0"/>
<feBlend mode="normal" in2="BackgroundImageFix" result="effect1_dropShadow_12_12"/>
<feColorMatrix in="SourceAlpha" type="matrix" values="0 0 0 0 0 0 0 0 0 0 0 0 0 0 0 0 0 0 127 0" result="hardAlpha"/>
<feOffset/>
<feGaussianBlur stdDeviation="12.5"/>
<feComposite in2="hardAlpha" operator="out"/>
<feColorMatrix type="matrix" values="0 0 0 0 0.635294 0 0 0 0 0.34902 0 0 0 0 1 0 0 0 1 0"/>
<feBlend mode="normal" in2="effect1_dropShadow_12_12" result="effect2_dropShadow_12_12"/>
<feBlend mode="normal" in="SourceGraphic" in2="effect2_dropShadow_12_12" result="shape"/>
</filter>
<filter id="filter1_f_12_12" x="41" y="41" width="3823" height="2569" filterUnits="userSpaceOnUse" color-interpolation-filters="sRGB">
<feFlood flood-opacity="0" result="BackgroundImageFix"/>
<feBlend mode="normal" in="SourceGraphic" in2="BackgroundImageFix" result="shape"/>
<feGaussianBlur stdDeviation="2.5" result="effect1_foregroundBlur_12_12"/>
</filter>
</defs>
</svg>
